<?xml version="1.0" encoding="utf-8"?>
<!-- Generator: Adobe Illustrator 27.5.0, SVG Export Plug-In . SVG Version: 6.00 Build 0)  -->
<svg version="1.1" id="Layer_1" xmlns="http://www.w3.org/2000/svg" xmlns:xlink="http://www.w3.org/1999/xlink" x="0px" y="0px"
	 viewBox="0 0 5000 2916" style="enable-background:new 0 0 5000 2916;" xml:space="preserve">
<g>
	<rect x="0" style="fill-rule:evenodd;clip-rule:evenodd;" width="5000" height="2916"/>
	<path style="fill-rule:evenodd;clip-rule:evenodd;fill:#00CCFF;" d="M2069.042,1195.728c-6.387-2.95-12.787-5.924-19.176-8.884
		c-3.894-1.386-7.736-2.669-11.635-4.07C2048.515,1187.117,2058.861,1191.568,2069.042,1195.728 M4966.104,965.643
		c2.386-2.209,4.764-4.418,7.118-6.605c-5.156,3.792-10.32,7.593-15.615,11.469C4960.43,968.89,4963.313,967.245,4966.104,965.643z
		 M2120.986,1216.485c-10.477-5.217-20.997-10.5-31.522-15.79c-8.547-2.959-17.113-5.96-25.688-8.988
		c10.179,4.749,20.382,9.532,30.459,14.116C2103.179,1209.422,2112.083,1212.956,2120.986,1216.485z M2146.592,1229.31
		c-3.467-1.704-6.994-3.494-10.501-5.26c-4.914-1.933-9.873-3.942-14.8-5.897C2129.776,1221.957,2138.144,1225.566,2146.592,1229.31
		z M4985.83,954.275c3.481-4.097,6.843-8.083,10.251-12.112c-4.26,3.155-8.532,6.323-12.915,9.556
		c-3.806,3.552-7.7,7.171-11.602,10.793C4976.405,959.726,4981.105,957.003,4985.83,954.275z M2168.062,1235.033
		c-12.796-6.776-25.685-13.687-38.584-20.607c-9.777-3.286-19.593-6.647-29.417-10.023c12.226,6.163,24.478,12.362,36.564,18.313
		C2147.111,1226.835,2157.639,1231.026,2168.062,1235.033z M2209.73,1257.006c-10.569-5.487-21.222-11.093-31.917-16.766
		c-8.701-3.327-17.346-6.56-26.091-9.959c11.079,5.407,21.957,10.517,32.973,15.832
		C2193.031,1249.729,2201.438,1253.465,2209.73,1257.006z M2242.357,1273.7c-5.312-2.72-10.626-5.447-15.921-8.146
		c-2.949-1.248-5.857-2.429-8.813-3.688C2225.872,1265.816,2234.194,1269.877,2242.357,1273.7z M2209.476,1250.628
		c-13.667-7.622-27.598-15.622-41.474-23.539c-10.191-3.327-20.38-6.645-30.623-10.066c13.704,7.361,27.439,14.768,40.974,21.885
		C2188.767,1242.884,2199.123,1246.755,2209.476,1250.628z M2256.923,1276.756c-13.022-7.151-25.956-14.181-39.046-21.431
		c-9.894-3.68-19.829-7.433-29.776-11.211c13.063,6.839,25.966,13.449,38.915,20.126
		C2237.024,1268.475,2246.976,1272.618,2256.923,1276.756z M2297.204,1298.864c-9.356-5.055-18.871-10.331-28.352-15.562
		c-8.341-3.443-16.757-7.006-25.141-10.52c10.189,5.232,20.404,10.507,30.501,15.606
		C2281.911,1291.933,2289.543,1295.377,2297.204,1298.864z M2326.121,1314.307c-3.141-1.677-6.242-3.299-9.372-4.963
		c-3.844-1.733-7.733-3.531-11.585-5.277C2312.221,1307.582,2319.103,1310.847,2326.121,1314.307z M2252.682,1266.701
		c-15.194-8.906-30.44-17.88-45.797-27.003c-10.622-3.359-21.329-6.884-32.003-10.35c14.577,8.296,29.215,16.68,43.561,24.656
		C2229.864,1258.251,2241.336,1262.583,2252.682,1266.701z M2302.359,1295.549c-14.344-8.269-28.699-16.554-43.187-25.021
		c-10.571-3.819-21.181-7.7-31.82-11.633c14.079,7.775,28.092,15.458,42.07,23.09
		C2280.408,1286.521,2291.452,1291.139,2302.359,1295.549z M2349.583,1322.593c-12.731-7.213-25.612-14.629-38.489-22.043
		c-9.901-3.981-19.787-7.938-29.751-12.022c12.058,6.592,24.073,13.124,35.98,19.502
		C2328.066,1312.867,2338.925,1317.879,2349.583,1322.593z M2394.257,1347.605c-11.19-6.237-22.25-12.29-33.508-18.619
		c-7.41-3.255-14.737-6.391-22.185-9.707c8.996,4.77,18.032,9.595,26.979,14.294
		C2375.07,1338.186,2384.802,1343.094,2394.257,1347.605z M2419.391,1361.562c-2.313-1.278-4.649-2.583-6.971-3.871
		c-2.347-1.109-4.635-2.134-6.987-3.249C2410.122,1356.865,2414.722,1359.164,2419.391,1361.562z M2293.05,1281.01
		c-15.985-9.757-32.069-19.646-48.228-29.641c-10.689-3.274-21.348-6.493-32.089-9.874c15.736,9.354,31.399,18.599,46.944,27.684
		C2270.856,1273.215,2281.945,1277.097,2293.05,1281.01z M2344.36,1312.168c-14.949-8.973-30.119-18.241-45.271-27.489
		c-10.946-3.843-21.907-7.71-32.921-11.671c15.252,8.883,30.313,17.5,45.429,26.195
		C2322.574,1303.614,2333.458,1307.88,2344.36,1312.168z M2394.911,1342.189c-14.406-8.516-28.714-16.904-43.247-25.586
		c-10.409-4.076-20.857-8.213-31.338-12.4c13.682,7.877,27.4,15.804,40.884,23.414
		C2372.518,1332.584,2383.693,1337.356,2394.911,1342.189z M2441.46,1369.613c-12.126-7.054-24.42-14.333-36.712-21.606
		c-10.261-4.394-20.564-8.849-30.903-13.357c13.029,7.266,26,14.458,38.957,21.633
		C2422.427,1360.831,2431.902,1365.163,2441.46,1369.613z M2487.697,1396.21c-10.573-6.058-21.203-12.187-31.829-18.309
		c-8.465-3.91-16.955-7.858-25.47-11.847c10.503,5.791,20.912,11.449,31.311,17.096
		C2470.385,1387.517,2479.085,1391.923,2487.697,1396.21z M2511.95,1410.157c-1.818-1.03-3.676-2.116-5.513-3.169
		c-1.458-0.721-2.902-1.418-4.366-2.139C2505.351,1406.6,2508.68,1408.417,2511.95,1410.157z M2333.768,1295.312
		c-16.783-10.618-33.634-21.326-50.627-32.225c-10.946-3.245-22.015-6.73-33.022-10.086c16.595,10.24,33.061,20.312,49.493,30.335
		C2310.998,1287.328,2322.458,1291.45,2333.768,1295.312z M2387.724,1329.157c-16.265-10.148-32.521-20.287-48.966-30.668
		c-10.982-3.739-22.056-7.625-33.112-11.487c15.577,9.507,31.191,19.068,46.53,28.259
		C2364.03,1319.902,2375.965,1324.667,2387.724,1329.157z M2439.805,1361.496c-15.155-9.304-30.541-18.911-45.913-28.505
		c-11.234-4.271-22.545-8.67-33.864-13.079c15.158,9.031,30.189,17.891,45.212,26.744
		C2416.75,1351.585,2428.395,1356.715,2439.805,1361.496z M2491.681,1392.979c-14.624-8.838-29.268-17.704-44.021-26.718
		c-10.801-4.503-21.701-9.157-32.589-13.791c13.831,8.128,27.566,16.133,41.239,24.054
		C2468.064,1381.954,2480.039,1387.704,2491.681,1392.979z M2538.869,1421.289c-12.491-7.436-25-14.9-37.617-22.503
		c-10.109-4.556-20.362-9.314-30.553-13.987c12.091,6.986,24.2,13.998,36.147,20.794
		C2517.552,1410.87,2528.255,1416.139,2538.869,1421.289z M2582.145,1446.888c-9.139-5.365-18.38-10.857-27.594-16.319
		c-8.839-4.257-17.876-8.781-26.786-13.127c10.271,5.768,20.46,11.433,30.676,17.135
		C2566.364,1438.709,2574.276,1442.828,2582.145,1446.888z M2609.202,1462.704c-1.017-0.591-2.006-1.149-3.024-1.74
		c-1.519-0.774-3.084-1.616-4.606-2.393C2604.144,1459.984,2606.64,1461.303,2609.202,1462.704z M2372.688,1308.246
		c-17.291-11.294-34.802-22.876-52.341-34.491c-10.8-3.097-21.546-6.088-32.407-9.292c17.23,11.047,34.343,21.941,51.337,32.681
		C2350.478,1300.952,2361.56,1304.56,2372.688,1308.246z M2428.228,1344.251c-16.798-10.815-33.724-21.793-50.739-32.893
		c-11.055-3.649-22.095-7.27-33.227-11.04c16.848,10.621,33.479,20.954,50.138,31.328
		C2405.748,1335.958,2416.968,1340.069,2428.228,1344.251z M2482.663,1379.013c-16.224-10.301-32.451-20.606-48.866-31.153
		c-11.05-4.085-22.098-8.167-33.23-12.382c15.946,9.922,31.854,19.79,47.587,29.43
		C2459.745,1369.744,2471.168,1374.325,2482.663,1379.013z M2535.045,1412.122c-15.024-9.398-30.255-19.063-45.49-28.737
		c-11.156-4.533-22.303-9.043-33.554-13.714c15.31,9.353,30.554,18.614,45.691,27.734
		C2512.915,1402.46,2523.917,1407.202,2535.045,1412.122z M2587.215,1444.466c-14.374-8.86-28.839-17.834-43.368-26.887
		c-10.868-4.779-21.691-9.493-32.657-14.408c14.729,8.835,29.253,17.401,43.83,26.037
		C2565.841,1434.416,2576.492,1439.389,2587.215,1444.466z M2636.326,1474.48c-12.83-7.791-25.627-15.538-38.583-23.49
		c-9.555-4.499-19.004-8.846-28.637-13.449c12.621,7.465,25.211,14.889,37.669,22.141
		C2616.737,1464.764,2626.447,1469.507,2636.326,1474.48z M2680.3,1501.088c-9.512-5.694-19.176-11.585-28.811-17.433
		c-7.854-3.926-15.692-7.823-23.597-11.816c9.625,5.546,19.299,11.15,28.869,16.624
		C2664.607,1492.677,2672.503,1496.948,2680.3,1501.088z M2705.578,1516.086c-0.782-0.464-1.549-0.912-2.327-1.373l-1.984-1.041
		C2702.707,1514.482,2704.136,1515.275,2705.578,1516.086z M2412.528,1321.438c-18.14-12.191-36.348-24.467-54.708-36.938
		c-10.915-3.021-21.98-6.317-32.957-9.451c17.811,11.775,35.583,23.5,53.155,34.967
		C2389.512,1313.808,2401.118,1317.783,2412.528,1321.438z M2469.53,1359.568c-17.448-11.567-35.124-23.432-52.824-35.325
		c-11.225-3.584-22.586-7.4-33.888-11.115c17.262,11.258,34.478,22.449,51.501,33.392
		C2446.046,1350.854,2457.897,1355.381,2469.53,1359.568z M2525.861,1396.652c-17.008-11.122-34.154-22.418-51.389-33.83
		c-11.447-4.107-23.046-8.445-34.587-12.692c16.864,10.814,33.506,21.347,50.171,31.905
		C2501.967,1386.87,2514.059,1391.975,2525.861,1396.652z M2580.916,1432.364c-16.401-10.577-32.805-21.161-49.404-31.991
		c-11.425-4.513-23.043-9.311-34.57-13.97c15.883,10.055,31.701,20.03,47.372,29.811
		C2556.493,1421.568,2568.855,1427.176,2580.916,1432.364z M2634.013,1466.446c-15.116-9.611-30.416-19.458-45.746-29.341
		c-11.586-4.96-23.457-10.321-35.155-15.438c15.102,9.413,30.192,18.807,45.095,27.961
		C2610.155,1455.248,2622.187,1460.989,2634.013,1466.446z M2686.579,1499.61c-14.182-8.886-28.493-17.936-42.84-27.029
		c-11.498-5.276-23.283-10.945-34.897-16.378c14.519,8.872,28.818,17.457,43.192,26.143
		C2663.545,1488.094,2675.183,1494.015,2686.579,1499.61z M2735.76,1530.162c-12.862-7.942-25.654-15.801-38.635-23.898
		c-9.937-4.852-19.94-9.797-29.962-14.763c12.293,7.407,24.495,14.693,36.644,21.909
		C2714.48,1519.023,2725.186,1524.682,2735.76,1530.162z M2777.542,1555.927c-8.346-5.089-16.842-10.367-25.303-15.603
		c-8.034-4.131-16.229-8.474-24.323-12.685c9.48,5.605,19.021,11.289,28.399,16.76
		C2763.458,1548.331,2770.442,1552.052,2777.542,1555.927z M2804.23,1572.031l-0.288-0.172l-0.249-0.135L2804.23,1572.031z
		 M2450.391,1333.177c-18.714-12.903-37.429-25.81-56.39-39.028c-10.685-2.855-21.285-5.551-32.028-8.513
		c18.551,12.594,36.921,24.954,55.246,37.255C2428.351,1326.446,2439.333,1329.748,2450.391,1333.177z M2509.103,1373.392
		c-18.16-12.373-36.373-24.813-54.762-37.48c-10.975-3.393-21.897-6.701-32.947-10.214c17.964,12.056,35.867,24.037,53.582,35.775
		C2486.439,1365.579,2497.731,1369.422,2509.103,1373.392z M2566.385,1412.241c-17.387-11.69-35.015-23.685-52.662-35.707
		c-11.253-3.916-22.463-7.758-33.806-11.809c17.46,11.557,34.865,23.047,52.074,34.286
		C2543.564,1403.578,2554.914,1407.823,2566.385,1412.241z M2623.058,1450.039c-16.972-11.262-34.015-22.616-51.203-34.149
		c-11.396-4.374-22.717-8.642-34.215-13.161c17.175,11.191,34.108,22.074,51.07,32.994
		C2600.291,1440.679,2611.587,1445.235,2623.058,1450.039z M2678.845,1486.765c-16.442-10.764-32.895-21.542-49.542-32.562
		c-11.251-4.692-22.381-9.219-33.736-14.057c16.312,10.487,32.526,20.854,48.618,31.061
		C2655.867,1476.567,2667.278,1481.562,2678.845,1486.765z M2732.584,1521.768c-15.226-9.828-30.642-19.896-46.087-30.001
		c-11.217-5.021-22.359-9.946-33.685-15.115c15.005,9.513,30.015,19.036,44.805,28.277
		C2709.361,1510.661,2720.96,1516.197,2732.584,1521.768z M2784.992,1555.326c-14.086-8.965-28.279-18.067-42.517-27.223
		c-11.185-5.333-22.451-10.77-33.748-16.252c14.761,9.169,29.373,18.147,43.988,27.132
		C2763.581,1544.572,2774.23,1549.874,2784.992,1555.326z M2835.827,1587.409c-13.004-8.159-25.934-16.23-39.062-24.546
		c-9.879-4.974-19.77-9.963-29.737-15.052c12.572,7.697,25.006,15.221,37.439,22.739
		C2814.948,1576.207,2825.445,1581.883,2835.827,1587.409z M2877.321,1613.4c-8.481-5.256-17.112-10.702-25.711-16.106
		c-7.212-3.811-14.302-7.465-21.559-11.339c7.949,4.796,15.961,9.667,23.818,14.342
		C2861.735,1604.728,2869.51,1609.042,2877.321,1613.4z M2488.691,1345.051c-19.108-13.483-38.426-27.233-57.846-41.108
		c-10.886-2.802-21.889-5.815-32.835-8.729c19.105,13.319,37.996,26.361,56.839,39.345
		C2466.119,1338.041,2477.501,1341.7,2488.691,1345.051z M2549.177,1387.394c-18.859-13.152-37.667-26.24-56.773-39.702
		c-11.11-3.32-22.417-6.952-33.607-10.399c18.624,12.819,37.043,25.378,55.427,37.891
		C2525.857,1379.227,2537.637,1383.495,2549.177,1387.394z M2608.266,1428.354c-18.194-12.539-36.482-25.197-54.922-38.047
		c-11.396-3.838-23.012-8.004-34.503-11.985c17.937,12.206,35.819,24.334,53.496,36.21
		C2584.303,1419.123,2596.413,1423.926,2608.266,1428.354z M2665.79,1467.846c-17.31-11.78-34.901-23.91-52.483-36.029
		c-11.703-4.356-23.687-9.122-35.501-13.635c17.426,11.688,34.756,23.255,51.943,34.645
		C2641.765,1457.836,2653.894,1463.005,2665.79,1467.846z M2723.701,1506.894c-17.207-11.558-34.439-23.146-51.854-34.963
		c-11.817-4.79-23.924-9.986-35.857-14.942c17.139,11.329,34.039,22.355,50.965,33.416
		C2699.189,1495.882,2711.596,1501.594,2723.701,1506.894z M2779.053,1543.806c-16.26-10.781-32.557-21.609-49.026-32.649
		c-11.701-5.101-23.607-10.487-35.429-15.756c16.239,10.597,32.382,21.071,48.398,31.384
		C2755.081,1532.549,2767.096,1538.216,2779.053,1543.806z M2833.23,1579.564c-15.296-10.004-30.819-20.288-46.346-30.58
		c-11.318-5.266-22.579-10.454-34.014-15.876c14.868,9.565,29.734,19.13,44.392,28.43
		C2809.287,1567.595,2821.338,1573.683,2833.23,1579.564z M2886.257,1613.937c-14.338-9.245-28.757-18.598-43.242-28.031
		c-11.043-5.43-22.1-10.881-33.255-16.465c14.198,8.953,28.261,17.735,42.326,26.522
		C2863.513,1602.001,2874.95,1608.053,2886.257,1613.937z M2935.938,1645.739c-12.281-7.813-24.502-15.552-36.9-23.516
		c-10.293-5.321-20.82-10.948-31.215-16.402c13.172,8.189,26.179,16.172,39.2,24.174
		C2916.754,1635.359,2926.299,1640.488,2935.938,1645.739z M2978.797,1672.941c-8.491-5.339-17.127-10.853-25.727-16.327
		c-7.463-4.034-14.915-8.06-22.432-12.162c7.867,4.827,15.792,9.726,23.559,14.427
		C2962.429,1663.607,2970.627,1668.293,2978.797,1672.941z M2525.821,1355.801c-19.541-14.084-39.329-28.473-59.169-42.933
		c-10.648-2.64-21.227-5.152-31.933-7.896c19.529,13.952,38.988,27.813,58.194,41.362
		C2503.97,1349.632,2514.839,1352.626,2525.821,1355.801z M2587.356,1399.868c-19.212-13.687-38.543-27.523-58.03-41.559
		c-10.949-3.154-21.805-6.163-32.831-9.442c19.301,13.593,38.302,26.81,57.348,40.083
		C2565.115,1392.742,2576.172,1396.212,2587.356,1399.868z M2647.969,1442.77c-18.815-13.255-37.655-26.541-56.727-40.116
		c-11.11-3.622-22.129-7.103-33.329-10.859c18.767,13.068,37.36,25.911,55.872,38.657
		C2625.308,1434.738,2636.554,1438.634,2647.969,1442.77z M2707.336,1484.391c-18.152-12.64-36.493-25.51-54.909-38.481
		c-11.321-4.087-22.514-7.991-33.936-12.225c18.045,12.422,36.06,24.806,53.83,36.883
		C2684.117,1475.35,2695.658,1479.774,2707.336,1484.391z M2765.787,1524.883c-17.606-12.112-35.426-24.485-53.293-36.919
		c-11.459-4.514-22.725-8.762-34.297-13.432c17.552,11.907,34.969,23.645,52.287,35.261
		C2742.361,1514.971,2754.033,1519.871,2765.787,1524.883z M2823.946,1564.554c-17.374-11.799-34.694-23.533-52.292-35.609
		c-11.582-4.92-23.145-9.809-34.851-14.893c17.01,11.385,33.804,22.497,50.596,33.608
		C2799.625,1553.349,2811.855,1559.049,2823.946,1564.554z M2879.994,1602.389c-16.202-10.866-32.501-21.849-48.926-32.988
		c-11.832-5.366-23.888-11.027-35.851-16.566c16.207,10.715,32.341,21.332,48.317,31.76
		C2855.749,1590.603,2867.921,1596.561,2879.994,1602.389z M2933.837,1638.349c-14.894-9.858-30.04-20.023-45.163-30.165
		c-11.682-5.606-23.561-11.477-35.373-17.259c15.486,10.089,30.961,20.158,46.23,29.975
		C2911.093,1626.879,2922.4,1632.53,2933.837,1638.349z M2988.289,1674.038c-14.587-9.52-29.196-19.071-43.925-28.768
		c-11.008-5.571-22.008-11.126-33.136-16.849c14.227,9.098,28.279,17.973,42.367,26.897
		C2965.177,1661.578,2976.837,1667.938,2988.289,1674.038z M3037.465,1705.936c-12.295-7.923-24.601-15.853-37.037-23.947
		c-9.886-5.234-19.78-10.48-29.761-15.835c12.806,8.073,25.458,15.954,38.119,23.845
		C3018.439,1695.428,3027.9,1700.619,3037.465,1705.936z M3081.402,1734.127c-8.455-5.382-17.039-10.923-25.586-16.417
		c-7.55-4.164-15.17-8.418-22.775-12.653c7.815,4.859,15.687,9.79,23.406,14.531
		C3064.79,1724.465,3073.126,1729.333,3081.402,1734.127z M2563.321,1366.588c-20.141-14.797-40.468-29.824-60.875-44.951
		c-10.688-2.548-21.456-5.236-32.207-7.891c19.986,14.553,39.905,29.024,59.595,43.209
		C2541,1360.17,2552.236,1363.5,2563.321,1366.588z M2625.992,1412.459c-19.555-14.207-39.422-28.801-59.295-43.399
		c-11.036-3.064-22.243-6.401-33.358-9.595c19.606,14.118,39.091,28.082,58.405,41.835
		C2603.16,1405.017,2614.672,1408.882,2625.992,1412.459z M2688.016,1457.199c-19.34-13.899-38.663-27.778-58.264-41.999
		c-11.268-3.55-22.756-7.427-34.12-11.117c19.262,13.701,38.276,27.088,57.28,40.467
		C2664.617,1448.775,2676.417,1453.132,2688.016,1457.199z M2748.752,1500.616c-18.703-13.297-37.519-26.73-56.489-40.353
		c-11.517-4.024-23.271-8.392-34.9-12.574c18.656,13.126,37.196,26.106,55.585,38.901
		C2724.908,1491.3,2736.916,1496.074,2748.752,1500.616z M2808.716,1543.08c-18.174-12.77-36.63-25.883-55.086-39.005
		c-11.73-4.482-23.677-9.264-35.526-13.915c18.102,12.592,36.206,25.19,54.025,37.432
		C2784.342,1532.776,2796.634,1538.075,2808.716,1543.08z M2867.302,1583.96c-17.647-12.252-35.398-24.634-53.287-37.183
		c-11.855-4.893-23.846-9.975-35.83-15.041c17.953,12.305,35.687,24.337,53.411,36.355
		C2843.622,1573.544,2855.412,1578.686,2867.302,1583.96z M2925.22,1623.9c-17.204-11.799-34.43-23.63-51.866-35.715
		c-11.631-5.14-23.143-10.122-34.901-15.43c17.054,11.544,33.934,22.871,50.76,34.131
		C2901.327,1612.706,2913.241,1618.262,2925.22,1623.9z M2981.777,1662.508c-16.316-11.05-32.824-22.339-49.386-33.69
		c-11.578-5.426-23.044-10.708-34.75-16.302c15.842,10.598,31.655,21.158,47.26,31.46
		C2957.246,1650.223,2969.578,1656.45,2981.777,1662.508z M3036.597,1699.422c-15.301-10.231-30.78-20.683-46.293-31.171
		c-11.521-5.694-23.061-11.412-34.715-17.272c15.192,9.996,30.342,19.942,45.347,29.703
		C3012.888,1687.012,3024.782,1693.27,3036.597,1699.422z M3090.32,1735.049c-14.364-9.479-28.629-18.839-43.148-28.506
		c-11.265-5.837-22.737-11.93-34.13-17.929c14.589,9.45,28.929,18.594,43.353,27.843
		C3067.763,1722.729,3079.08,1728.936,3090.32,1735.049z M3139.724,1767.501c-12.078-7.869-24.253-15.855-36.49-23.923
		c-9.561-5.166-18.975-10.151-28.627-15.434c12.154,7.761,24.19,15.379,36.196,22.958
		C3120.526,1756.672,3130.092,1762.045,3139.724,1767.501z M3184.742,1796.646c-8.448-5.441-17.001-11.005-25.511-16.516
		c-7.497-4.213-15.107-8.562-22.661-12.845c7.878,4.951,15.82,9.982,23.615,14.829
		C3168.392,1786.986,3176.602,1791.855,3184.742,1796.646z M2599.749,1376.435c-20.559-15.362-41.3-30.945-62.127-46.636
		c-10.548-2.41-21.072-4.788-31.68-7.308c20.537,15.216,40.993,30.327,61.271,45.218
		C2578.134,1370.738,2588.904,1373.526,2599.749,1376.435z M2663.589,1423.989c-20.029-14.816-40.388-30.036-60.732-45.237
		c-10.77-2.879-21.422-5.573-32.267-8.574c19.99,14.682,40.003,29.39,59.67,43.669
		C2641.469,1417.376,2652.473,1420.599,2663.589,1423.989z M2726.737,1470.447c-19.739-14.451-39.635-29.091-59.667-43.898
		c-11.026-3.351-21.907-6.486-33.027-9.975c19.737,14.314,39.251,28.356,58.717,42.332
		C2704.187,1462.902,2715.413,1466.605,2726.737,1470.447z M2789.014,1515.782c-19.373-14.035-38.815-28.155-58.465-42.529
		c-11.2-3.789-22.238-7.344-33.543-11.28c19.179,13.764,38.18,27.308,57.089,40.738
		C2765.826,1507.191,2777.406,1511.464,2789.014,1515.782z M2850.132,1559.876c-18.769-13.452-37.761-27.174-56.816-40.975
		c-11.446-4.242-22.781-8.333-34.345-12.733c18.612,13.218,37.185,26.386,55.511,39.252
		C2826.457,1550.361,2838.288,1555.109,2850.132,1559.876z M2910.74,1603.128c-18.348-13.002-36.96-26.323-55.596-39.676
		c-11.73-4.702-23.503-9.461-35.364-14.338c18.146,12.726,36.206,25.349,54.087,37.749
		C2886.17,1592.302,2898.582,1597.883,2910.74,1603.128z M2970.136,1644.904c-17.97-12.586-35.907-25.13-54.12-38.013
		c-11.926-5.126-24.038-10.498-36.104-15.807c17.83,12.342,35.409,24.378,52.998,36.424
		C2945.341,1633.335,2957.857,1639.274,2970.136,1644.904z M3027.915,1685.147c-17.095-11.831-34.312-23.809-51.656-35.942
		c-11.96-5.461-24.084-11.139-36.188-16.785c17.037,11.657,33.963,23.176,50.751,34.527
		C3003.243,1673.086,3015.648,1679.204,3027.915,1685.147z M3083.714,1723.647c-15.825-10.82-31.944-21.999-48.027-33.135
		c-11.992-5.783-24.215-11.86-36.353-17.833c16.205,10.958,32.436,21.949,48.373,32.582
		C3059.831,1711.54,3071.737,1717.551,3083.714,1723.647z M3140.336,1762.027c-15.735-10.62-31.549-21.333-47.465-32.174
		c-11.433-5.791-22.8-11.499-34.365-17.456c15.172,10.071,30.257,20.035,45.271,29.911
		C3115.987,1748.91,3128.278,1755.615,3140.336,1762.027z M3193.219,1797.488c-14.108-9.404-28.22-18.809-42.503-28.424
		c-11.248-5.952-22.683-12.136-34.065-18.251c14.526,9.52,28.854,18.8,43.199,28.1
		C3171.057,1785.207,3182.137,1791.347,3193.219,1797.488z M3242.232,1830.071c-11.66-7.675-23.534-15.615-35.383-23.516
		c-9.613-5.295-19.137-10.476-28.845-15.889c11.948,7.729,23.849,15.4,35.635,22.926
		C3223.255,1819.186,3232.714,1824.591,3242.232,1830.071z M3288.46,1860.218c-8.5-5.53-17.063-11.135-25.581-16.683
		c-7.277-4.155-14.674-8.458-22.006-12.678c8.118,5.143,16.311,10.377,24.365,15.446
		C3273.005,1850.972,3280.755,1855.62,3288.46,1860.218z M2636.131,1386.082c-21.065-15.995-42.231-32.106-63.579-48.449
		c-10.514-2.306-21.07-4.688-31.646-7.095c20.949,15.778,41.781,31.414,62.457,46.856
		C2614.301,1380.316,2625.269,1383.283,2636.131,1386.082z M2701.277,1435.372c-20.531-15.446-41.293-31.177-62.126-46.994
		c-10.825-2.782-21.778-5.762-32.683-8.667c20.475,15.293,40.937,30.567,61.103,45.48
		C2678.822,1428.609,2690.12,1432.094,2701.277,1435.372z M2765.393,1483.416c-20.056-14.937-40.374-30.194-60.744-45.517
		c-11.11-3.252-22.393-6.755-33.6-10.147c20.131,14.877,40.156,29.628,59.985,44.138
		C2742.514,1475.772,2754.021,1479.689,2765.393,1483.416z M2828.778,1530.339c-19.812-14.612-39.614-29.213-59.704-44.164
		c-11.319-3.698-22.804-7.63-34.232-11.481c19.814,14.485,39.394,28.682,58.93,42.829
		C2805.491,1521.865,2817.182,1526.165,2828.778,1530.339z M2891.436,1576.333c-19.361-14.137-38.876-28.456-58.526-42.941
		c-11.526-4.135-23.189-8.452-34.836-12.752c19.313,13.978,38.53,27.837,57.558,41.466
		C2867.614,1566.908,2879.59,1571.709,2891.436,1576.333z M2952.392,1620.694c-18.621-13.449-37.571-27.298-56.498-41.116
		c-11.686-4.543-23.438-9.178-35.252-13.894c18.719,13.406,37.461,26.844,55.877,39.882
		C2928.588,1610.753,2940.467,1615.693,2952.392,1620.694z M3013.156,1664.264c-18.421-13.159-36.897-26.382-55.57-39.846
		c-11.826-4.942-23.668-9.9-35.634-15.023c18.43,13.022,36.641,25.775,54.825,38.495
		C2989,1653.476,3001.08,1658.869,3013.156,1664.264z M3072.548,1706.429c-17.775-12.555-35.608-25.179-53.637-38.04
		c-11.933-5.307-23.941-10.708-36.019-16.203c17.93,12.527,35.678,24.837,53.349,37.047
		C3048.476,1695.135,3060.462,1700.719,3072.548,1706.429z M3130.858,1747.433c-17.068-11.914-34.367-24.105-51.706-36.346
		c-11.842-5.57-23.612-11.049-35.601-16.807c16.723,11.553,33.412,23.064,49.871,34.297
		C3105.947,1734.923,3118.492,1741.289,3130.858,1747.433z M3187.519,1786.741c-16.225-11.192-32.614-22.575-49.07-34.042
		c-11.884-5.878-23.854-11.86-35.89-17.925c16.326,11.12,32.601,22.178,48.697,33.016
		C3163.455,1774.246,3175.473,1780.476,3187.519,1786.741z M3244.078,1825.451c-15.793-10.755-31.539-21.451-47.531-32.447
		c-11.694-6.049-23.474-12.213-35.31-18.444c15.552,10.434,30.847,20.561,46.208,30.765
		C3219.68,1812.066,3231.998,1818.904,3244.078,1825.451z M3296.609,1861.055c-13.9-9.353-27.925-18.851-42.023-28.44
		c-11.114-5.992-22.316-12.099-33.562-18.25c14.269,9.452,28.409,18.75,42.48,27.968
		C3274.633,1848.685,3285.613,1854.861,3296.609,1861.055z M3346.787,1894.621c-11.848-7.874-23.859-15.94-35.849-23.983
		c-9.538-5.341-19.009-10.592-28.644-16.051c11.587,7.584,23.225,15.229,34.63,22.592
		C3326.978,1883.115,3336.838,1888.812,3346.787,1894.621z M3392.252,1924.595c-8.653-5.681-17.23-11.274-25.925-17.007
		c-6.92-4.009-13.945-8.14-20.917-12.213c8.559,5.456,17.197,11.014,25.722,16.434
		C3378.208,1916.112,3385.23,1920.353,3392.252,1924.595z M2671.849,1395.066c-21.447-16.529-42.913-33.084-64.66-49.974
		c-10.438-2.19-20.917-4.445-31.415-6.739c21.463,16.428,42.715,32.593,63.886,48.665
		C2650.446,1389.787,2661.14,1392.415,2671.849,1395.066z M2738.097,1445.92c-20.995-16.046-42.147-32.28-63.434-48.682
		c-10.653-2.628-21.253-5.176-31.982-7.923c20.956,15.901,41.815,31.688,62.471,47.226
		C2716.207,1439.776,2727.134,1442.821,2738.097,1445.92z M2803.297,1495.598c-20.47-15.495-41.288-31.407-62.094-47.31
		c-10.89-3.069-21.695-6.016-32.678-9.22c20.462,15.391,40.901,30.752,61.039,45.75
		C2780.879,1488.513,2792.087,1492.052,2803.297,1495.598z M2868.064,1544.302c-20.354-15.262-40.703-30.515-61.344-46.125
		c-11.144-3.511-22.229-6.942-33.477-10.604c20.243,15.059,40.17,29.736,60.132,44.449
		C2844.991,1536.188,2856.569,1540.302,2868.064,1544.302z M2931.676,1591.752c-19.833-14.727-39.763-29.57-59.885-44.649
		c-11.384-3.948-22.783-7.919-34.287-12.029c19.773,14.568,39.379,28.931,58.864,43.148
		C2908.207,1582.826,2919.971,1587.324,2931.676,1591.752z M2994.251,1638.046c-19.241-14.142-38.753-28.612-58.296-43.121
		c-11.636-4.383-23.37-8.9-35.134-13.459c19.204,14.011,38.392,28.001,57.292,41.641
		C2970.219,1628.163,2982.29,1633.178,2994.251,1638.046z M3055.879,1683.085c-18.864-13.721-37.863-27.603-57.005-41.66
		c-11.795-4.781-23.638-9.631-35.574-14.599c18.854,13.592,37.565,27.004,56.148,40.268
		C3031.676,1672.533,3043.803,1677.841,3055.879,1683.085z M3116.891,1727.175c-18.547-13.346-37.11-26.708-55.925-40.374
		c-11.877-5.136-23.743-10.257-35.767-15.583c18.331,13.06,36.423,25.834,54.496,38.585
		C3092.146,1715.66,3104.6,1721.52,3116.891,1727.175z M3176.285,1769.708c-17.729-12.617-35.64-25.45-53.644-38.396
		c-12.034-5.511-24.164-11.145-36.353-16.857c17.688,12.467,35.284,24.823,52.7,36.964
		C3151.49,1757.602,3163.948,1763.731,3176.285,1769.708z M3234.242,1810.763c-16.802-11.82-33.849-23.932-50.915-36.068
		c-12.129-5.85-24.471-11.968-36.762-18.017c16.945,11.804,33.882,23.603,50.557,35.083
		C3209.595,1798.214,3221.936,1804.511,3234.242,1810.763z M3291.967,1851.047c-16.645-11.569-33.235-23.071-50.092-34.894
		c-11.761-5.948-23.458-11.814-35.369-17.949c16.351,11.214,32.51,22.2,48.659,33.173
		C3267.519,1838.04,3279.778,1844.586,3291.967,1851.047z M3348.052,1889.801c-15.443-10.603-30.956-21.293-46.615-32.155
		c-11.817-6.234-23.824-12.704-35.794-19.124c15.426,10.454,30.681,20.7,45.896,30.904
		C3323.746,1876.257,3336.006,1883.16,3348.052,1889.801z M3400.347,1925.593c-13.604-9.23-27.47-18.769-41.3-28.266
		c-11.014-6.04-22.088-12.153-33.235-18.352c13.813,9.249,27.604,18.466,41.203,27.46
		C3378.208,1912.92,3389.287,1919.269,3400.347,1925.593z M3451.898,1960.245c-12.206-8.179-24.466-16.421-36.757-24.697
		c-9.355-5.314-18.62-10.522-28.07-15.952c12.063,7.93,24.167,15.914,36.099,23.686
		C3432.859,1949.068,3442.31,1954.575,3451.898,1960.245z M3495.99,1989.648c-8.357-5.536-16.66-11.009-25.1-16.643
		c-6.95-4.081-13.96-8.232-20.961-12.374c9.318,6.014,18.575,11.949,27.838,17.892
		C3483.885,1982.287,3489.908,1985.931,3495.99,1989.648z M2707.262,1403.657c-21.885-17.098-43.719-34.139-65.914-51.615
		c-10.346-2.074-20.699-4.153-31.106-6.331c21.841,16.966,43.381,33.561,64.92,50.159
		C2685.894,1398.516,2696.606,1401.131,2707.262,1403.657z M2774.629,1456.077c-21.404-16.591-42.916-33.314-64.615-50.264
		c-10.626-2.511-21.333-5.143-32.04-7.772c21.389,16.476,42.624,32.762,63.72,48.878
		C2752.705,1450.021,2763.709,1453.109,2774.629,1456.077z M2840.859,1507.253c-20.852-16.019-42.016-32.414-63.201-48.832
		c-10.884-2.947-21.881-6.054-32.86-9.136c20.912,15.979,41.82,31.95,62.396,47.522
		C2818.466,1500.36,2829.695,1503.852,2840.859,1507.253z M2906.441,1557.349c-20.625-15.702-41.316-31.481-62.241-47.543
		c-11.123-3.375-22.34-6.891-33.568-10.414c20.718,15.663,41.183,31.023,61.607,46.328
		C2883.717,1549.7,2895.084,1553.534,2906.441,1557.349z M2971.431,1606.56c-20.34-15.339-40.739-30.752-61.373-46.452
		c-11.309-3.785-22.668-7.64-34.093-11.587c20.329,15.226,40.441,30.186,60.478,45.056
		C2948.174,1597.998,2959.831,1602.318,2971.431,1606.56z M3035.157,1654.441c-19.766-14.763-39.769-29.818-59.844-44.956
		c-11.488-4.186-22.979-8.375-34.597-12.735c19.681,14.601,39.296,29.123,58.671,43.356
		C3011.374,1644.968,3023.316,1649.769,3035.157,1654.441z M3098.125,1701.259c-19.34-14.305-38.891-28.855-58.531-43.519
		c-11.761-4.625-23.68-9.448-35.587-14.256c19.29,14.159,38.487,28.206,57.483,42.014
		C3073.733,1690.795,3086.034,1696.162,3098.125,1701.259z M3159.991,1746.713c-18.925-13.852-37.819-27.669-57.006-41.839
		c-11.996-5.038-24.266-10.425-36.414-15.661c19.052,13.826,37.816,27.308,56.6,40.811
		C3135.518,1735.68,3147.804,1741.258,3159.991,1746.713z M3220.521,1790.807c-18.218-13.196-36.585-26.571-55.081-40.099
		c-12.066-5.378-24.303-10.973-36.527-16.552c18.469,13.266,36.796,26.357,54.984,39.286
		C3196.237,1779.393,3208.346,1785.059,3220.521,1790.807z M3280.399,1834.031c-17.719-12.693-35.753-25.764-53.769-38.815
		c-11.948-5.616-23.811-11.13-35.914-16.943c17.337,12.322,34.691,24.663,51.741,36.638
		C3255.138,1821.326,3267.893,1827.832,3280.399,1834.031z M3338.87,1875.586c-17.15-12.147-34.313-24.314-51.682-36.72
		c-12.129-5.987-24.435-12.19-36.728-18.38c17.323,12.136,34.505,24.095,51.602,35.957
		C3314.459,1862.984,3326.637,1869.249,3338.87,1875.586z M3396.59,1916.22c-16.512-11.559-33.075-23.182-49.823-35.022
		c-11.846-6.108-23.614-12.121-35.617-18.422c16.309,11.286,32.398,22.308,48.485,33.328
		C3372.027,1902.899,3384.365,1909.626,3396.59,1916.22z M3452.288,1955.06c-15.105-10.447-30.439-21.174-45.79-31.916
		c-11.835-6.347-23.91-12.995-35.901-19.534c15.162,10.372,30.257,20.663,45.187,30.76
		C3427.979,1941.3,3440.253,1948.325,3452.288,1955.06z M3506.063,1991.983c-14.033-9.59-28.177-19.313-42.367-29.091
		c-10.946-6.091-21.968-12.279-33.046-18.532c13.681,9.227,27.378,18.472,40.869,27.468
		C3483.099,1978.626,3494.626,1985.36,3506.063,1991.983z M3557.073,2026.606c-12.407-8.38-24.73-16.652-37.268-25.185
		c-9.241-5.322-18.341-10.474-27.673-15.906c12.248,8.104,24.42,16.121,36.561,24.097
		C3538.24,2015.383,3547.621,2020.951,3557.073,2026.606z M3599.973,2055.527c-7.682-5.133-15.52-10.454-23.317-15.72
		c-7.4-4.392-14.799-8.787-22.26-13.254c10.351,6.757,20.438,13.194,30.69,19.827
		C3590.104,2049.494,3594.981,2052.441,3599.973,2055.527z M2742.337,1411.829c-22.143-17.524-44.302-35.066-66.772-52.98
		c-10.338-1.975-20.772-4.109-31.174-6.185c22.267,17.527,44.188,34.643,66.133,51.787
		C2721.163,1406.964,2731.776,1409.435,2742.337,1411.829z M2810.689,1465.688c-21.798-17.118-43.667-34.326-65.766-51.806
		c-10.515-2.377-21.05-4.782-31.646-7.277c21.798,17.021,43.39,33.796,64.886,50.453
		C2789.056,1460.003,2799.891,1462.873,2810.689,1465.688z M2878.073,1518.433c-21.319-16.599-42.914-33.533-64.563-50.532
		c-10.743-2.789-21.484-5.578-32.318-8.499c21.294,16.499,42.543,32.944,63.504,49.041
		C2855.862,1511.832,2867.014,1515.196,2878.073,1518.433z M2944.828,1570.17c-21.077-16.271-42.281-32.697-63.676-49.348
		c-10.99-3.207-22.02-6.471-33.116-9.827c20.996,16.116,41.8,31.997,62.49,47.742
		C2921.978,1562.57,2933.5,1566.502,2944.828,1570.17z M3010.6,1620.672c-20.714-15.847-41.448-31.726-62.462-47.937
		c-11.246-3.63-22.63-7.446-33.997-11.238c20.739,15.772,41.218,31.226,61.658,46.637
		C2987.449,1612.382,2999.083,1616.601,3010.6,1620.672z M3075.248,1669.955c-20.125-15.26-40.458-30.771-60.892-46.405
		c-11.464-4.037-23.082-8.281-34.68-12.492c20.293,15.293,40.48,30.462,60.461,45.379
		C3051.945,1661.078,3063.583,1665.5,3075.248,1669.955z M3139.02,1718.125c-19.727-14.816-39.706-29.936-59.745-45.128
		c-11.548-4.395-23.017-8.688-34.705-13.264c19.768,14.757,39.49,29.459,58.944,43.836
		C3115.488,1708.6,3127.197,1713.289,3139.02,1718.125z M3202.205,1765.28c-19.521-14.519-38.997-28.985-58.799-43.84
		c-11.747-4.788-23.437-9.503-35.334-14.481c19.517,14.404,38.701,28.412,57.94,42.485
		C3178.196,1754.878,3190.18,1760.051,3202.205,1765.28z M3264.393,1811.31c-18.964-13.965-38.061-28.087-57.316-42.4
		c-11.855-5.135-23.609-10.142-35.62-15.476c18.733,13.69,37.297,27.173,55.751,40.528
		C3239.664,1799.821,3252.109,1805.667,3264.393,1811.31z M3324.866,1855.703c-18.153-13.227-36.622-26.839-55.079-40.428
		c-12.073-5.527-24.246-11.178-36.482-16.908c18.267,13.215,36.511,26.407,54.476,39.262
		C3300.247,1843.782,3312.573,1849.764,3324.866,1855.703z M3385.211,1899.359c-17.876-12.888-35.809-25.839-53.93-39.015
		c-12.129-5.837-24.384-11.827-36.68-17.869c17.727,12.661,35.32,25.162,52.797,37.525
		C3360.07,1886.534,3372.719,1893.042,3385.211,1899.359z M3443.804,1941.339c-17.175-12.247-34.391-24.538-51.815-37.077
		c-12.155-6.12-24.386-12.334-36.708-18.661c17.458,12.324,34.667,24.348,51.88,36.376
		C3419.52,1928.605,3431.615,1934.913,3443.804,1941.339z M3501.166,1982.063c-16.214-11.429-32.652-23.12-49.13-34.864
		c-11.877-6.231-23.733-12.433-35.775-18.863c16.145,11.265,32.193,22.415,48.09,33.389
		C3476.701,1968.6,3488.984,1975.391,3501.166,1982.063z M3557.869,2021.774c-15.354-10.693-30.867-21.575-46.429-32.518
		c-11.773-6.415-23.786-13.116-35.716-19.721c14.99,10.332,29.986,20.678,44.742,30.732
		C3532.95,2007.456,3545.555,2014.79,3557.869,2021.774z M3612.001,2059.195c-14.419-9.925-28.752-19.741-43.339-29.864
		c-11.027-6.221-22.197-12.616-33.361-19.005c14.105,9.556,28.107,18.984,42.069,28.369
		C3588.948,2045.571,3600.569,2052.495,3612.001,2059.195z M3662.261,2093.636c-11.951-8.125-24.019-16.394-36.141-24.725
		c-9.744-5.674-19.432-11.287-29.282-17.089c12.247,8.189,24.268,16.104,36.375,24.128
		C3642.931,2081.885,3652.648,2087.822,3662.261,2093.636z M3707.995,2124.533c-8.493-5.712-17.086-11.543-25.629-17.317
		c-6.652-3.99-13.229-7.893-19.93-11.942c7.808,5.148,15.585,10.26,23.305,15.304
		C3693.167,2115.238,3700.627,2119.94,3707.995,2124.533z M2776.871,1419.428c-22.458-17.984-44.991-36.058-67.79-54.45
		c-10.196-1.854-20.354-3.646-30.608-5.597c22.524,17.96,44.76,35.569,66.949,53.126
		C2755.951,1414.886,2766.416,1417.164,2776.871,1419.428z M2846.191,1474.695c-22.143-17.602-44.328-35.258-66.777-53.227
		c-10.436-2.25-20.898-4.541-31.409-6.909c22.183,17.544,44.119,34.793,65.993,51.969
		C2824.782,1469.325,2835.499,1472.026,2846.191,1474.695z M2914.465,1528.793c-21.643-17.067-43.535-34.437-65.509-51.904
		c-10.666-2.65-21.38-5.37-32.136-8.15c21.74,17.067,43.404,34.04,64.81,50.708
		C2892.645,1522.661,2903.556,1525.724,2914.465,1528.793z M2981.96,1581.802c-21.328-16.683-42.828-33.574-64.484-50.643
		c-10.878-3.047-21.783-6.132-32.765-9.323c21.45,16.694,42.752,33.208,63.879,49.512
		C2959.814,1574.97,2970.854,1578.339,2981.96,1581.802z M3049.006,1633.967c-21.169-16.418-42.338-32.842-63.816-49.629
		c-11.069-3.436-22.105-6.828-33.293-10.425c21.186,16.34,42.074,32.32,62.958,48.293
		C3026.33,1626.247,3037.661,1630.097,3049.006,1633.967z M3115.195,1685.105c-20.739-15.947-41.675-32.128-62.735-48.458
		c-11.26-3.825-22.458-7.572-33.852-11.567c20.545,15.71,40.957,31.262,61.189,46.6
		C3091.615,1676.177,3103.528,1680.801,3115.195,1685.105z M3179.81,1734.623c-20.065-15.29-40.422-30.922-60.809-46.599
		c-11.595-4.264-23.44-8.854-35.18-13.305c20.156,15.277,40.297,30.536,60.125,45.426
		C3155.953,1725.038,3167.956,1729.928,3179.81,1734.623z M3244.163,1783.357c-20.042-15.131-40.023-30.19-60.357-45.668
		c-11.725-4.629-23.559-9.393-35.439-14.216c19.957,14.961,39.59,29.539,59.266,44.164
		C3219.854,1772.932,3232.109,1778.269,3244.163,1783.357z M3307.178,1830.701c-19.396-14.505-38.915-29.155-58.611-44.015
		c-11.918-5.009-23.987-10.209-36.07-15.425c19.448,14.444,38.699,28.656,57.853,42.752
		C3282.698,1819.661,3295.003,1825.263,3307.178,1830.701z M3368.747,1876.597c-18.595-13.769-37.512-27.915-56.418-42.054
		c-12.073-5.37-24.348-10.994-36.59-16.574c18.836,13.856,37.64,27.673,56.167,41.165
		C3344.303,1865.096,3356.526,1870.848,3368.747,1876.597z M3430.425,1921.962c-18.566-13.606-37.197-27.288-56.029-41.21
		c-11.993-5.619-23.922-11.16-36.084-16.985c18.227,13.249,36.331,26.35,54.29,39.286
		C3405.271,1909.433,3417.938,1915.807,3430.425,1921.962z M3490.361,1965.619c-17.753-12.871-35.541-25.783-53.552-38.961
		c-12.33-6.055-24.933-12.436-37.444-18.71c17.945,12.898,35.627,25.479,53.315,38.073
		C3465.323,1952.656,3477.901,1959.206,3490.361,1965.619z M3548.749,2007.782c-16.95-12.154-34.125-24.577-51.349-37.061
		c-12.105-6.203-24.234-12.438-36.508-18.851c17.211,12.239,34.306,24.337,51.25,36.256
		C3524.491,1994.854,3536.574,2001.266,3548.749,2007.782z M3606.481,2048.952c-16.271-11.538-32.718-23.284-49.227-35.102
		c-11.835-6.309-23.641-12.583-35.639-19.088c15.979,11.236,31.971,22.485,47.688,33.406
		C3581.8,2035.221,3594.161,2042.11,3606.481,2048.952z M3663.343,2088.981c-15.646-10.965-31.216-21.842-47.062-33.043
		c-11.713-6.47-23.608-13.159-35.482-19.823c15.433,10.674,30.736,21.193,45.993,31.659
		C3639.024,2074.903,3651.278,2082.055,3663.343,2088.981z M3717.587,2126.808c-13.994-9.692-28.099-19.517-42.302-29.452
		c-11.35-6.481-22.94-13.247-34.439-19.907c14.211,9.714,28.212,19.175,42.24,28.674
		C3694.598,2113.031,3706.222,2120.073,3717.587,2126.808z M3768.49,2161.884c-11.916-8.157-24.013-16.525-36.087-24.866
		c-9.715-5.721-19.522-11.548-29.348-17.4c11.405,7.703,22.778,15.361,34.019,22.867
		C3747.541,2148.947,3758.143,2155.565,3768.49,2161.884z M3814.045,2192.828c-8.774-5.941-17.482-11.801-26.297-17.787
		c-5.741-3.48-11.333-6.784-17.11-10.307c6.66,4.405,13.412,8.918,20.03,13.276
		C3798.449,2182.939,3806.328,2187.979,3814.045,2192.828z M1964.376,1152.88c-5.725-1.788-11.445-3.558-17.182-5.375
		c10.755,4.111,21.404,8.007,32.083,11.963C1974.348,1157.336,1969.32,1155.033,1964.376,1152.88z M2003.992,1165.269
		c-9.132-2.76-18.358-5.773-27.519-8.608c10.97,4.751,21.803,9.254,32.718,13.904c9.071,3.325,18.227,6.827,27.253,10.059
		C2025.679,1175.595,2014.852,1170.457,2003.992,1165.269z M2041.057,1176.12c-9.606-2.818-19.174-5.543-28.811-8.437
		c12.799,6.094,25.424,11.898,38.109,17.808c9.705,3.441,19.362,6.79,29.028,10.153
		C2066.667,1189.23,2053.904,1182.74,2041.057,1176.12z M2079.381,1187.34c-10.399-2.952-20.885-6.129-31.321-9.17
		c14.094,7.239,27.974,14.16,41.924,21.185c10.702,3.699,21.476,7.542,32.122,11.13
		C2107.928,1202.864,2093.724,1195.202,2079.381,1187.34z M2115.932,1197.415c-10.154-2.791-20.249-5.435-30.438-8.313
		c14.974,8.194,29.708,16.036,44.515,23.983c10.593,3.549,21.114,6.954,31.655,10.405
		C2146.432,1214.814,2131.32,1206.31,2115.932,1197.415z M2153.628,1207.703c-10.765-2.855-21.605-5.893-32.408-8.847
		c15.941,9.203,31.559,17.944,47.323,26.897c10.99,3.58,22.069,7.329,32.998,10.795
		C2185.692,1227.098,2169.654,1217.392,2153.628,1207.703z M2189.701,1217.046c-10.366-2.662-20.693-5.234-31.094-7.983
		c16.336,9.865,32.623,19.659,48.785,29.283c10.936,3.45,21.769,6.703,32.649,10.047
		C2223.349,1238.065,2206.621,1227.686,2189.701,1217.046z M2226.358,1226.335c-10.68-2.642-21.408-5.403-32.13-8.142
		c17.163,10.782,34.184,21.371,51.11,31.828c11.136,3.41,22.373,7.003,33.447,10.294
		C2261.449,1249.175,2243.901,1237.75,2226.358,1226.335z M2262.109,1235.021c-10.484-2.505-20.97-5.012-31.496-7.606
		c17.763,11.547,35.485,23.044,53.042,34.318c10.962,3.244,21.792,6.244,32.696,9.376
		C2298.351,1259.183,2280.344,1247.251,2262.109,1235.021z M2297.69,1243.352c-10.552-2.427-21.123-4.906-31.713-7.426
		c18.462,12.378,36.684,24.438,54.892,36.479c11.055,3.163,22.185,6.464,33.179,9.513
		C2335.4,1269.24,2316.624,1256.4,2297.69,1243.352z M2333.277,1251.444c-10.569-2.341-21.179-4.772-31.788-7.201
		c19.086,13.142,38.049,26.129,56.849,38.903c10.786,2.982,21.432,5.706,32.16,8.578
		C2371.615,1278.541,2352.414,1264.953,2333.277,1251.444z M2368.154,1258.943c-10.441-2.221-20.879-4.433-31.363-6.743
		c19.316,13.626,38.656,27.286,57.715,40.592c11.005,2.937,22.047,5.946,32.984,8.768
		C2407.83,1287.504,2388.051,1273.298,2368.154,1258.943z M2403.065,1266.355c-10.455-2.134-20.995-4.453-31.493-6.677
		c20.059,14.464,39.97,28.74,59.791,42.91c10.788,2.772,21.479,5.372,32.206,8.037
		C2443.507,1296.001,2423.393,1281.31,2403.065,1266.355z M2437.168,1273.046c-10.292-2.015-20.552-3.956-30.889-6.059
		c20.46,15.049,40.7,29.82,60.88,44.518c10.784,2.67,21.578,5.353,32.298,7.913
		C2478.824,1304.119,2458.129,1288.749,2437.168,1273.046z M2471.511,1279.786c-10.35-1.94-20.802-4.094-31.198-6.122
		c21.084,15.79,41.895,31.24,62.643,46.611c10.666,2.538,21.278,4.989,31.883,7.422
		C2513.868,1311.897,2492.84,1296.027,2471.511,1279.786z M2505.211,1285.822c-10.199-1.829-20.329-3.515-30.571-5.427
		c21.369,16.269,42.471,32.206,63.487,48.037c10.6,2.422,21.171,4.794,31.71,7.109
		C2548.465,1319.178,2526.928,1302.609,2505.211,1285.822z M2538.995,1291.82c-10.23-1.75-20.531-3.635-30.804-5.469
		c21.786,16.838,43.424,33.498,64.866,49.914c10.547,2.308,21.094,4.626,31.578,6.831
		C2582.956,1326.249,2561.008,1309.073,2538.995,1291.82z M2572.263,1297.32c-10.104-1.645-20.188-3.252-30.337-4.98
		c22.042,17.274,44.048,34.504,65.761,51.379c10.428,2.185,20.787,4.255,31.154,6.34
		C2616.875,1332.751,2594.552,1315.014,2572.263,1297.32z M2605.365,1302.585c-10.071-1.559-20.175-3.177-30.289-4.818
		c22.345,17.737,44.754,35.549,66.782,52.905c10.431,2.088,20.925,4.279,31.298,6.265
		C2650.785,1339.091,2628.053,1320.811,2605.365,1302.585z M2638.247,1307.578c-10.01-1.466-20.051-3.003-30.102-4.55
		c22.736,18.263,45.494,36.552,67.918,54.442c10.271,1.96,20.433,3.738,30.646,5.604
		C2684.092,1344.818,2661.169,1326.198,2638.247,1307.578z M4894.72,1005.951c-424.905,180.213-1223.745,452.456-2253.802,302.004
		c22.998,18.676,45.97,37.328,68.664,55.645C3765.357,1555.418,4498.155,1225.646,4894.72,1005.951z M4922.841,993.926
		c-5.213,2.248-10.433,4.496-15.765,6.776c-393.567,219.533-1129.779,557.653-2195.124,364.803
		c22.853,18.433,45.459,36.573,67.962,54.591C3885.81,1658.536,4561.853,1253.31,4922.841,993.926z M4946.625,983.613
		c-5.848,2.551-11.687,5.099-17.696,7.698c-359.527,259.132-1036.29,669.294-2146.474,430.825
		c22.528,18.031,44.778,35.727,66.994,53.385C4004.066,1762.296,4620.548,1282.902,4946.625,983.613z M4969.252,973.686
		c-6.104,2.694-12.313,5.419-18.622,8.177c-325.169,299.019-941.465,782.137-2098.417,495.854
		c22.059,17.529,44.019,34.937,65.749,52.07C4122.5,1867.091,4678.099,1313.177,4969.252,973.686z M4991.302,963.916
		c-6.213,2.771-12.611,5.601-19.062,8.45c-290.539,339.222-845.537,896.169-2051.265,559.788
		c21.708,17.114,43.301,34.086,64.677,50.805C4241.778,1972.993,4735.285,1343.873,4991.302,963.916z M4953.882,978.88
		c5.943-2.602,11.756-5.164,17.521-7.711c3.926-4.586,7.806-9.132,11.65-13.641c-5.305,3.063-10.648,6.146-16.123,9.289
		C4962.633,970.802,4958.294,974.817,4953.882,978.88z M4934.394,987.385c5.235-2.274,10.351-4.515,15.479-6.756
		c3.902-3.587,7.799-7.171,11.616-10.698c-4.792,2.746-9.563,5.488-14.497,8.292
		C4942.797,981.278,4938.676,984.288,4934.394,987.385z M4919.314,993.88c2.975-1.281,6.016-2.577,8.948-3.845
		c2.608-1.878,5.23-3.763,7.794-5.619C4930.526,987.55,4925.01,990.681,4919.314,993.88z M94.068,0h3.684
		c383.034,159.578,822.176,401.915,1325.98,752.727c247.94,172.647,478.362,319.411,692.725,443.339
		c10.91,2.998,21.831,6.031,32.697,8.926c-223.769-135.472-465.168-295.34-726.214-483.292
		C986.171,407.224,598.768,171.657,255.04,0h3.134C601.366,171.599,987.973,406.771,1423.74,720.525
		c262.681,189.128,505.471,349.83,730.396,485.828c10.544,2.8,21.041,5.483,31.547,8.189
		c-233.958-147.286-487.585-321.176-762.748-525.059C1035.589,402.478,687.836,176.301,374.643,0h2.907
		c312.678,176.165,659.736,401.966,1046.199,688.314c276.649,204.985,531.48,379.596,766.461,527.374
		c10.82,2.778,21.633,5.539,32.412,8.218c-244.383-159.164-510.129-346.679-799.693-566.64
		C1075.67,393.482,759.814,176.473,472.478,0h2.352c287.028,176.368,602.175,392.708,948.925,656.105
		c290.936,221.004,557.816,409.248,803.126,568.881c10.647,2.633,21.273,5.229,31.878,7.772
		c-254.541-170.856-532.317-372.065-835.838-607.711C1108.532,380.966,819.769,174.057,554.475,0h2.562
		c264.849,173.849,553.014,380.342,866.725,623.897c304.734,236.587,583.523,438.486,838.865,609.766
		c10.617,2.533,21.203,5,31.779,7.44c-264.585-182.438-554.227-397.167-871.488-648.273C1136.515,366.149,871.584,169.917,625.73,0
		h2.528c245.393,169.67,509.774,365.535,795.506,591.687c318.474,252.064,609.068,467.431,874.442,650.308
		c10.695,2.458,21.409,4.96,32.06,7.328c-274.767-194.051-576.204-422.079-907.353-688.711
		C1161.41,350.059,917.788,164.376,689.815,0h2.441c227.533,164.111,470.63,349.421,731.517,559.478
		c332.242,267.513,634.547,496.146,910.01,690.601c10.523,2.328,20.985,4.528,31.467,6.768
		c-284.699-205.483-597.715-446.67-942.343-728.449C1184.248,333.259,959.83,157.621,748.808,0h2.395
		c210.588,157.341,434.502,332.613,672.574,527.27c345.675,282.639,659.533,524.435,944.891,730.311
		c10.559,2.249,21.176,4.622,31.691,6.776c-294.666-216.888-619.346-471.287-977.455-768.176
		C1204.333,314.975,998.189,150.529,802.507,0h2.342c195.256,150.236,400.911,314.314,618.93,495.059
		c359.073,297.688,684.534,552.67,979.794,769.929c10.363,2.115,20.637,4.044,30.959,6.071
		c-304.387-228.104-640.455-495.486-1011.631-807.095C1223.651,296.69,1034.159,142.417,853.67,0h2.31
		c180.064,142.113,369.086,296.025,567.801,462.849c372.113,312.394,708.939,580.357,1013.895,808.827
		c10.412,2.038,20.872,4.179,31.24,6.13c-314.173-239.322-661.716-519.723-1046.018-846.057
		C1241.08,277.355,1067.808,134.216,901.378,0h2.268c166.018,133.907,338.828,276.679,520.14,430.638
		c385.231,327.122,733.504,608.087,1048.238,847.777c10.284,1.927,20.47,3.659,30.712,5.503
		c-323.872-250.444-682.581-543.507-1079.84-884.384C1257.791,257.862,1099.793,125.45,947.177,0h2.243
		c152.204,125.129,309.755,257.179,474.37,398.431c398.143,341.636,757.527,635.212,1081.927,886.015
		c10.296,1.844,20.603,3.719,30.852,5.479c-333.587-261.545-703.469-567.232-1113.674-922.609
		C1274.054,238.372,1130.367,116.083,991.515,0h2.211c138.45,115.762,281.697,237.682,430.065,366.217
		c411.071,356.128,781.614,662.33,1115.712,924.228c10.182,1.74,20.315,3.39,30.453,5.048
		c-343.191-272.533-724.119-590.724-1147.065-960.388C1288.89,217.987,1159.639,106.947,1033.596,0h2.21
		c125.632,106.612,254.46,217.3,387.987,334.006c423.762,370.376,805.31,689.06,1148.979,961.932
		c10.128,1.651,20.237,3.257,30.324,4.825c-352.739-283.453-744.64-614.06-1180.208-997.875
		C1303.319,197.527,1187.915,97.459,1074.574,0h2.194c112.93,97.116,227.923,196.842,347.028,301.796
		c436.367,384.517,828.879,715.622,1182.078,999.41c10.08,1.559,20.165,3.131,30.202,4.61
		c-362.25-294.316-765.082-637.282-1213.189-1035.144C1317.463,177.073,1215.315,87.603,1114.65,0h2.174
		c100.259,87.257,202.003,176.385,306.974,269.585c448.861,398.528,852.266,741.97,1214.947,1036.607
		C3679.6,1458.821,4484.604,1179.587,4906.491,999.39c13.626-7.601,26.936-15.09,39.756-22.383
		c12.388-9.01,24.428-17.839,36.029-26.399c6.021-5.621,11.928-11.15,17.724-16.593v1.943l-7.792,7.301l7.792-5.765v2.229
		c-3.481,4.119-6.979,8.257-10.544,12.455c3.563-2.061,7.069-4.096,10.544-6.115v1.651c-4.366,2.536-8.796,5.101-13.28,7.693
		c-4.042,4.753-8.19,9.602-12.329,14.44c6.243-2.763,12.411-5.496,18.43-8.182c2.415-3.586,4.807-7.146,7.18-10.683v2.531
		l-4.741,7.061l4.741-2.117v1.574l-6.26,2.795c-255.604,379.713-748.36,1011.382-2004.861,622.668
		c21.568,16.854,42.81,33.318,64.068,49.803c1084.238,368.262,1565.768-52.003,1824.482-446.341
		c47.604-72.562,87.673-144.231,122.571-209.937v2.992c-34.632,65.117-74.341,136.002-121.412,207.751
		c-258.669,394.268-739.809,814.477-1822.187,448.214c21.195,16.43,42.239,32.677,63.115,48.725
		c983.35,361.577,1448.014,56.062,1700.125-315.576c77.065-113.601,134.27-233.39,180.359-342.211v3.59
		c-45.894,108.081-102.793,226.788-179.217,339.442c-252.038,371.535-716.25,677.065-1697.585,317.577
		c20.486,15.748,40.985,31.511,61.141,46.862c924.6,364.929,1375.282,128.816,1618.34-219.352
		c89.434-128.107,150.782-271.379,197.322-405.441v4.268c-46.409,133.066-107.497,274.965-196.189,402.012
		c-242.958,348.023-693.063,584.252-1615.404,221.605c20.436,15.55,40.563,30.726,60.708,45.926
		c887.218,372.957,1327.158,185.295,1561.551-142.2c87.598-122.391,146.501-264.319,189.334-403.805v4.757
		c-42.758,138.217-101.405,278.616-188.207,399.897c-234.27,327.326-673.532,515.19-1558.281,144.68
		c19.974,15.059,39.737,29.868,59.406,44.57c863.651,384.241,1296.127,233.423,1522.913-76.612
		c74.01-101.177,126.113-219.318,164.169-341.352v4.693c-37.981,120.659-89.797,237.38-163.054,337.529
		c-226.616,309.8-658.159,460.997-1518.93,79.547c19.112,14.28,38.187,28.515,56.989,42.427
		c850.136,398.365,1278.147,277.358,1498.478-18.103c53.308-71.486,94.453-153.193,126.517-240.199v4.062
		c-31.916,85.799-72.732,166.375-125.406,237.008c-220.122,295.184-647.09,416.599-1493.95,21.382
		c19.081,14.1,38.022,28.036,56.813,41.792c843.118,413.947,1268.297,317.502,1483.09,34.365
		c30.55-40.271,56.818-84.345,79.453-131.243v3.25c-22.39,46.011-48.311,89.271-78.354,128.877
		c-214.564,282.834-638.664,379.691-1478.267-30.891c18.396,13.447,36.52,26.567,54.653,39.702
		c841.944,431.487,1266.685,356.811,1476.854,83.995c8.752-11.361,17.091-23.104,25.114-35.128v2.535
		c-7.69,11.451-15.666,22.645-24.021,33.489c-209.864,272.42-633.195,347.701-1470.925-79.802
		c17.76,12.852,35.405,25.566,52.885,38.084C4357.92,2439.104,4782.027,2412.121,5000,2184.022v2.045
		c-217.784,226.636-639.884,253.771-1433.578-167.307c16.947,12.133,33.898,24.269,50.555,36.06
		c731.898,404.447,1150.805,433.306,1383.023,270.637v1.698c-231.601,161.491-647.869,133.416-1372.993-265.272
		c16.437,11.591,32.705,22.984,48.939,34.333c671.234,383.333,1081.118,454.515,1324.055,348.736v1.473
		c-241.974,104.868-648.843,34.867-1313.062-342.496c15.53,10.826,30.855,21.411,46.167,31.983
		C4350.912,2499.77,4749.542,2602.942,5000,2545.555v1.392c-248.804,56.709-643.301-44.529-1252.532-401.134
		c13.767,9.49,27.493,18.935,41.039,28.166c570.448,345.796,956.388,472.975,1211.493,456.183v1.284
		c-252.277,16.462-632.108-107.488-1191.093-443.663c11.625,7.879,23.302,15.819,34.8,23.548
		c527.448,328.325,899.29,472.913,1156.293,489.758v1.314c-252.12-16.587-614.491-155.861-1125.359-470.39
		c8.305,5.522,16.573,11.005,24.829,16.474c487.643,310.983,844.184,467.667,1100.53,512.016v1.29
		c-245.62-42.488-583.037-187.928-1039.319-473.105c448.126,291.773,786.834,455.166,1039.319,521.344v1.252
		c-264.101-69.188-622.367-244.586-1101.214-561.704c-35.562-22.673-71.792-46.138-108.701-70.402
		c-34.628-21.924-69.752-44.435-105.682-67.901c-32.695-20.523-66.002-41.772-99.869-63.686
		c-35.059-21.76-70.904-44.465-107.31-67.838c-34.897-21.45-70.49-43.739-106.65-66.713
		c-34.689-21.101-69.977-42.928-105.859-65.472c-34.444-20.709-69.365-41.996-104.985-64.136
		c-34.101-20.23-68.599-40.946-103.834-62.578c-33.562-19.612-67.476-39.663-102.121-60.624
		c-32.962-18.93-66.283-38.311-100.276-58.539c-32.105-18.079-64.602-36.656-97.663-55.956
		c-32.698-17.997-65.95-36.709-99.62-55.967c-32.284-17.318-65.132-35.377-98.299-53.868
		c-31.786-16.578-63.913-33.614-96.524-51.311c-31.675-15.949-63.818-32.549-96.323-49.655
		c-30.136-14.594-60.567-29.617-91.4-45.218c-29.536-13.609-59.459-27.807-89.588-42.312
		c-29.826-12.951-59.919-26.328-90.338-40.234c-28.109-11.342-56.496-23.168-85.026-35.252
		c-26.844-9.881-53.796-19.986-80.943-30.491c-164.116-52.731-332.514-116.944-504.711-194.168
		C929,725.701,446.749,615.738,0,575.735v-1.442c446.921,40.007,929.363,150.002,1423.619,371.65
		c163.664,73.397,323.846,134.909,480.226,186.103c-155.057-60.926-315.249-132.633-480.812-217.009
		C911.96,654.576,433.78,516.156,0,457.175v-1.45c433.97,58.986,912.36,197.447,1423.651,458.02
		c174.034,88.695,342.175,163.48,504.595,226.329c8.2,2.638,16.331,5.089,24.51,7.666
		c-168.95-74.098-345.344-161.65-529.749-264.932C899.2,589.434,423.873,424.149,0,345.119v-1.459
		c424.073,79.034,899.626,244.377,1423.674,537.887c188.555,105.604,368.782,194.851,541.179,269.977
		c10.14,3.165,20.322,6.437,30.429,9.517c-180.839-86.761-371.319-189.391-572.292-310.458
		C889.918,529.473,416.506,339.138,0,239.71v-1.476c416.717,99.436,890.366,289.842,1423.694,611.111
		c204.11,122.951,397.442,226.979,580.782,314.569c10.068,3.044,20.041,5.843,30.078,8.806
		c-191.767-99.086-395.244-216.258-611.579-354.358C883.416,473.923,411.199,260.422,0,140.803v-1.497
		C411.414,258.944,883.876,472.523,1423.706,817.14c218.69,139.6,424.275,257.886,617.854,357.629
		c10.717,3.143,21.462,6.364,32.139,9.408c-202.682-111.362-419.114-242.996-650.738-398.036
		C878.861,421.94,407.638,187.88,0,48.692v-1.521c407.858,139.216,879.332,373.37,1423.72,737.763
		c233.694,156.426,451.96,289.09,656.186,401.064c10.46,2.966,20.845,5.749,31.266,8.626
		c-213.111-123.393-442.013-269.26-688.223-440.703C917.841,402.2,477.737,159.506,94.068,0z"/>
</g>
</svg>
